<svg width="4" height="4" viewBox="0 0 4 4" fill="none" xmlns="http://www.w3.org/2000/svg">
<path d="M0.582406 1.28928L0.570993 1.03361C0.566161 0.925354 0.671772 0.82519 0.806533 0.810218L3.60714 0.486469C3.7426 0.470838 3.85602 0.545727 3.86011 0.65349L3.96004 2.89232C3.96488 3.00058 3.85927 3.10074 3.7245 3.11572L3.4046 3.15263C3.2677 3.16843 3.15342 3.09074 3.15142 2.981L3.13201 1.62133L1.13513 3.51522C1.04272 3.60287 0.888532 3.62066 0.789286 3.55513L0.550496 3.39747C0.45125 3.33194 0.445749 3.20871 0.538158 3.12107L2.53504 1.22718L0.841137 1.45564C0.703648 1.4744 0.586595 1.39935 0.582406 1.28928Z" fill="#F4F9FE"/>
</svg>
