<svg width="426" height="513" viewBox="0 0 426 513" fill="none" xmlns="http://www.w3.org/2000/svg">
<g style="mix-blend-mode:lighten" filter="url(#filter0_f_9046_9901)">
<path d="M312 399C285.998 399 260.251 395.314 236.229 388.153C212.206 380.992 190.379 370.495 171.993 357.263C153.607 344.03 139.022 328.321 129.072 311.032C119.121 293.743 114 275.213 114 256.5C114 237.787 119.121 219.257 129.072 201.968C139.022 184.679 153.607 168.97 171.993 155.737C190.379 142.505 212.206 132.008 236.229 124.847C260.251 117.686 285.998 114 312 114L312 399Z" fill="url(#paint0_radial_9046_9901)" fill-opacity="0.62"/>
</g>
<defs>
<filter id="filter0_f_9046_9901" x="0" y="0" width="426" height="513" filterUnits="userSpaceOnUse" color-interpolation-filters="sRGB">
<feFlood flood-opacity="0" result="BackgroundImageFix"/>
<feBlend mode="normal" in="SourceGraphic" in2="BackgroundImageFix" result="shape"/>
<feGaussianBlur stdDeviation="57" result="effect1_foregroundBlur_9046_9901"/>
</filter>
<radialGradient id="paint0_radial_9046_9901" cx="0" cy="0" r="1" gradientUnits="userSpaceOnUse" gradientTransform="translate(312 256.5) rotate(15.1112) scale(152.818 118.028)">
<stop stop-color="#9E00FF"/>
<stop offset="1" stop-color="#AA14F0" stop-opacity="0.07"/>
</radialGradient>
</defs>
</svg>
