<svg width="18" height="19" viewBox="0 0 18 19" fill="none" xmlns="http://www.w3.org/2000/svg">
<path d="M15.9567 10.1189C15.597 8.51429 13.8625 7.66936 12.0723 8.07284C11.6978 8.15702 11.3366 7.92945 11.2964 7.58396C11.1074 5.93348 9.62986 4.75467 7.83112 4.99936C5.76853 5.2814 4.22133 7.14518 4.43293 8.99287L5.1652 15.3498C5.21261 15.7603 5.61239 16.0122 6.05731 15.9119L12.9464 14.3568C14.9504 13.9051 16.3676 11.9594 15.9567 10.1189Z" fill="url(#paint0_linear_17_91)"/>
<path d="M14.5402 2.41526C14.2432 1.86955 13.52 1.68524 12.9046 1.94789C12.7718 2.00448 12.6215 1.94982 12.5697 1.82607C12.3306 1.25268 11.6672 0.932701 11.0324 1.13954C10.3047 1.37724 9.92873 2.14214 10.1964 2.78404L11.1189 4.99217C11.1785 5.13475 11.3511 5.19752 11.504 5.13223L13.8717 4.12067C14.5604 3.82662 14.8803 3.0413 14.5402 2.41526Z" fill="url(#paint1_linear_17_91)"/>
<defs>
<linearGradient id="paint0_linear_17_91" x1="8.08643" y1="-0.779687" x2="18.9859" y2="11.4256" gradientUnits="userSpaceOnUse">
<stop stop-color="#B936F5"/>
<stop offset="1" stop-color="#C64C85"/>
<stop offset="1" stop-color="#F1005B"/>
</linearGradient>
<linearGradient id="paint1_linear_17_91" x1="10.5317" y1="-0.929284" x2="15.7105" y2="2.78254" gradientUnits="userSpaceOnUse">
<stop stop-color="#B936F5"/>
<stop offset="1" stop-color="#C64C85"/>
<stop offset="1" stop-color="#F1005B"/>
</linearGradient>
</defs>
</svg>
