<svg width="31" height="53" viewBox="0 0 31 53" fill="none" xmlns="http://www.w3.org/2000/svg">
<path d="M30.1334 16.8205C30.1334 26.4707 23.3781 27.9694 23.3781 36.9633C23.3781 41.6063 19.1587 41.9974 15.9473 41.9974C13.1736 41.9974 7.04924 40.8299 7.04924 36.9603C7.04924 27.9709 0.410156 26.4722 0.410156 16.8205C0.410156 7.7817 7.55048 0.454468 15.3839 0.454468C23.22 0.454468 30.1334 7.7817 30.1334 16.8205Z" fill="url(#paint0_linear_1401_287)" stroke="white" stroke-width="0.5"/>
<path d="M20.9042 48.9525C20.9042 50.1934 17.886 52.6993 15.2744 52.6993C12.6628 52.6993 9.64453 50.1934 9.64453 48.9525C9.64453 47.7115 12.6614 48.2031 15.2744 48.2031C17.886 48.2031 20.9042 47.7115 20.9042 48.9525Z" fill="url(#paint1_linear_1401_287)" stroke="white" stroke-width="0.5"/>
<path d="M21.6282 15.6704C21.5028 15.5311 21.3539 15.4206 21.19 15.3452C21.0261 15.2698 20.8504 15.231 20.673 15.231C20.4955 15.231 20.3198 15.2698 20.1559 15.3452C19.992 15.4206 19.8431 15.5311 19.7178 15.6704L15.2687 20.6057L10.8197 15.6704C10.6943 15.5312 10.5454 15.4209 10.3815 15.3456C10.2176 15.2702 10.0419 15.2315 9.86452 15.2315C9.68713 15.2315 9.51147 15.2702 9.34757 15.3456C9.18368 15.4209 9.03477 15.5312 8.90933 15.6704C8.78389 15.8095 8.68439 15.9747 8.6165 16.1565C8.54861 16.3383 8.51367 16.5332 8.51367 16.73C8.51367 16.9268 8.54861 17.1216 8.6165 17.3034C8.68439 17.4852 8.78389 17.6504 8.90933 17.7896L13.9177 23.3453V39.2108C13.9177 39.6082 14.06 39.9894 14.3134 40.2705C14.5668 40.5516 14.9104 40.7095 15.2687 40.7095C15.6271 40.7095 15.9707 40.5516 16.2241 40.2705C16.4775 39.9894 16.6198 39.6082 16.6198 39.2108V23.3453L21.6282 17.7896C21.7537 17.6505 21.8534 17.4853 21.9213 17.3035C21.9893 17.1217 22.0243 16.9268 22.0243 16.73C22.0243 16.5331 21.9893 16.3382 21.9213 16.1564C21.8534 15.9746 21.7537 15.8094 21.6282 15.6704Z" fill="white"/>
<path d="M24.5 45.0584C24.5 45.5986 24.219 46.1168 23.719 46.4988C23.2189 46.8808 22.5406 47.0954 21.8333 47.0954H11.1667C10.4594 47.0954 9.78115 46.8808 9.28105 46.4988C8.78095 46.1168 8.5 45.5986 8.5 45.0584V38.9473H24.5V45.0584Z" fill="#09010E"/>
<path d="M7.15855 48.2021C6.82023 48.2008 6.49469 48.0586 6.24629 47.8038C5.99788 47.549 5.84471 47.2001 5.81703 46.826C5.78936 46.452 5.8892 46.08 6.09682 45.7837C6.30445 45.4874 6.60474 45.2883 6.93833 45.2257L23.151 42.2283C23.326 42.1948 23.5053 42.2003 23.6785 42.2443C23.8516 42.2882 24.0152 42.3699 24.1597 42.4844C24.3042 42.599 24.4267 42.7443 24.5203 42.9118C24.6139 43.0792 24.6765 43.2657 24.7047 43.4602C24.7339 43.6543 24.7283 43.8528 24.6883 44.0445C24.6483 44.2362 24.5746 44.4172 24.4714 44.5773C24.3683 44.7374 24.2377 44.8733 24.0872 44.9774C23.9367 45.0814 23.7691 45.1516 23.5941 45.1837L7.38148 48.1812C7.30788 48.1955 7.23327 48.2025 7.15855 48.2021ZM7.15855 42.2073C6.82023 42.2059 6.49469 42.0637 6.24629 41.8089C5.99788 41.5541 5.84471 41.2052 5.81703 40.8312C5.78936 40.4571 5.8892 40.0852 6.09682 39.7888C6.30445 39.4925 6.60474 39.2934 6.93833 39.2308L23.151 36.2334C23.326 36.2002 23.5052 36.2058 23.6783 36.2498C23.8514 36.2939 24.0149 36.3755 24.1593 36.4901C24.3038 36.6046 24.4264 36.7498 24.52 36.9172C24.6136 37.0846 24.6764 37.2709 24.7047 37.4653C24.7339 37.6594 24.7283 37.858 24.6883 38.0496C24.6483 38.2413 24.5746 38.4224 24.4714 38.5824C24.3683 38.7425 24.2377 38.8785 24.0872 38.9825C23.9367 39.0866 23.7691 39.1567 23.5941 39.1889L7.38148 42.1863C7.30788 42.2006 7.23327 42.2077 7.15855 42.2073Z" fill="url(#paint2_linear_1401_287)" stroke="white" stroke-width="0.5"/>
<defs>
<linearGradient id="paint0_linear_1401_287" x1="3.16533" y1="-3.31208" x2="43.0935" y2="5.81375" gradientUnits="userSpaceOnUse">
<stop stop-color="#C54A92"/>
<stop offset="1" stop-color="#2E62EB"/>
</linearGradient>
<linearGradient id="paint1_linear_1401_287" x1="10.6882" y1="47.6907" x2="14.3124" y2="55.1026" gradientUnits="userSpaceOnUse">
<stop stop-color="#C54A92"/>
<stop offset="1" stop-color="#2E62EB"/>
</linearGradient>
<linearGradient id="paint2_linear_1401_287" x1="7.56541" y1="35.1249" x2="19.1178" y2="50.3225" gradientUnits="userSpaceOnUse">
<stop stop-color="#C54A92"/>
<stop offset="1" stop-color="#2E62EB"/>
</linearGradient>
</defs>
</svg>
