<svg width="108" height="50" viewBox="0 0 108 50" fill="none" xmlns="http://www.w3.org/2000/svg">
<path d="M4.48588 33.448H16.1979V37H0.117875V3.544H4.48588V33.448ZM23.0926 6.424C22.2606 6.424 21.5566 6.136 20.9806 5.56C20.4046 4.984 20.1166 4.28 20.1166 3.448C20.1166 2.616 20.4046 1.912 20.9806 1.336C21.5566 0.759998 22.2606 0.471998 23.0926 0.471998C23.8926 0.471998 24.5646 0.759998 25.1086 1.336C25.6846 1.912 25.9726 2.616 25.9726 3.448C25.9726 4.28 25.6846 4.984 25.1086 5.56C24.5646 6.136 23.8926 6.424 23.0926 6.424ZM25.2046 10.696V37H20.8366V10.696H25.2046ZM43.4971 10.264C45.7691 10.264 47.7531 10.76 49.4491 11.752C51.1771 12.744 52.4571 13.992 53.2891 15.496V10.696H57.7051V37.576C57.7051 39.976 57.1931 42.104 56.1691 43.96C55.1451 45.848 53.6731 47.32 51.7531 48.376C49.8651 49.432 47.6571 49.96 45.1291 49.96C41.6731 49.96 38.7931 49.144 36.4891 47.512C34.1851 45.88 32.8251 43.656 32.4091 40.84H36.7291C37.2091 42.44 38.2011 43.72 39.7051 44.68C41.2091 45.672 43.0171 46.168 45.1291 46.168C47.5291 46.168 49.4811 45.416 50.9851 43.912C52.5211 42.408 53.2891 40.296 53.2891 37.576V32.056C52.4251 33.592 51.1451 34.872 49.4491 35.896C47.7531 36.92 45.7691 37.432 43.4971 37.432C41.1611 37.432 39.0331 36.856 37.1131 35.704C35.2251 34.552 33.7371 32.936 32.6491 30.856C31.5611 28.776 31.0171 26.408 31.0171 23.752C31.0171 21.064 31.5611 18.712 32.6491 16.696C33.7371 14.648 35.2251 13.064 37.1131 11.944C39.0331 10.824 41.1611 10.264 43.4971 10.264ZM53.2891 23.8C53.2891 21.816 52.8891 20.088 52.0891 18.616C51.2891 17.144 50.2011 16.024 48.8251 15.256C47.4811 14.456 45.9931 14.056 44.3611 14.056C42.7291 14.056 41.2411 14.44 39.8971 15.208C38.5531 15.976 37.4811 17.096 36.6811 18.568C35.8811 20.04 35.4811 21.768 35.4811 23.752C35.4811 25.768 35.8811 27.528 36.6811 29.032C37.4811 30.504 38.5531 31.64 39.8971 32.44C41.2411 33.208 42.7291 33.592 44.3611 33.592C45.9931 33.592 47.4811 33.208 48.8251 32.44C50.2011 31.64 51.2891 30.504 52.0891 29.032C52.8891 27.528 53.2891 25.784 53.2891 23.8ZM78.1426 10.216C80.1266 10.216 81.9186 10.648 83.5186 11.512C85.1186 12.344 86.3666 13.608 87.2626 15.304C88.1906 17 88.6546 19.064 88.6546 21.496V37H84.3346V22.12C84.3346 19.496 83.6786 17.496 82.3666 16.12C81.0546 14.712 79.2626 14.008 76.9906 14.008C74.6866 14.008 72.8466 14.728 71.4706 16.168C70.1266 17.608 69.4546 19.704 69.4546 22.456V37H65.0866V1.48H69.4546V14.44C70.3186 13.096 71.5026 12.056 73.0066 11.32C74.5426 10.584 76.2546 10.216 78.1426 10.216ZM101.118 14.296V29.8C101.118 31.08 101.39 31.992 101.934 32.536C102.478 33.048 103.422 33.304 104.766 33.304H107.982V37H104.046C101.614 37 99.7898 36.44 98.5738 35.32C97.3578 34.2 96.7498 32.36 96.7498 29.8V14.296H93.3418V10.696H96.7498V4.072H101.118V10.696H107.982V14.296H101.118Z" fill="white"/>
</svg>
