<svg width="53" height="53" viewBox="0 0 53 53" fill="none" xmlns="http://www.w3.org/2000/svg">
<path d="M0.198975 33.1603C1.95358 33.0793 3.43825 32.4044 4.65298 31.1357C5.86771 29.8669 6.48857 28.3552 6.48857 26.6005C6.48857 28.3552 7.08244 29.8669 8.29717 31.1357C9.5119 32.4044 10.9966 33.0793 12.7512 33.1603C10.9966 33.2413 9.5119 33.9162 8.29717 35.1849C7.70988 35.783 7.24751 36.4921 6.937 37.2707C6.62649 38.0493 6.47405 38.8819 6.48857 39.7201C6.48857 37.9654 5.8947 36.4537 4.65298 35.1849C3.43825 33.9162 1.95358 33.2413 0.198975 33.1603ZM6.48857 13.724C9.88981 13.562 12.7782 12.2392 15.1536 9.7557C17.5291 7.27217 18.7168 4.32972 18.7168 0.901367C18.7168 4.32972 19.9046 7.27217 22.28 9.7557C24.6555 12.2392 27.5439 13.535 30.9721 13.724C28.7316 13.8319 26.6801 14.4528 24.7905 15.6406C22.9279 16.8014 21.4432 18.3671 20.3365 20.3107C19.2567 22.2544 18.7168 24.333 18.7168 26.6005C18.7168 23.1722 17.5291 20.2027 15.1536 17.7192C12.7782 15.2087 9.88981 13.8859 6.48857 13.724ZM15.4506 42.7975C18.015 42.6895 20.2015 41.6907 21.9831 39.8281C23.7647 37.9654 24.6555 35.7518 24.6555 33.1603C24.6555 35.7518 25.5463 37.9654 27.3279 39.8281C29.1095 41.6907 31.269 42.6895 33.8335 42.7975C31.269 42.9055 29.1095 43.9043 27.3279 45.7669C25.5463 47.6296 24.6555 49.8432 24.6555 52.4347C24.6555 49.8432 23.7647 47.6296 21.9831 45.7669C20.2803 43.9572 17.9336 42.8905 15.4506 42.7975ZM33.8335 30.0019C36.3979 29.8939 38.5574 28.8951 40.339 27.0325C42.1206 25.1698 42.9844 22.9562 42.9844 20.3377C42.9844 22.9292 43.8752 25.1428 45.6568 27.0055C47.4384 28.8681 49.6249 29.8669 52.1894 29.9749C49.6249 30.0829 47.4384 31.0817 45.6568 32.9443C43.8752 34.807 42.9844 37.0206 42.9844 39.6121C42.9844 37.0206 42.0936 34.807 40.339 32.9443C38.5574 31.1087 36.3979 30.1099 33.8335 30.0019Z" fill="white"/>
</svg>
