<svg width="6" height="44" viewBox="0 0 6 44" fill="none" xmlns="http://www.w3.org/2000/svg">
<path d="M4.76371 13.2285C3.78515 12.2542 2.20231 12.2581 1.22845 13.2364C0.254115 14.2151 0.257714 15.798 1.23611 16.7719C2.21498 17.7461 3.79814 17.7425 4.77185 16.7639C5.74571 15.7853 5.74242 14.2022 4.76371 13.2285Z" fill="white"/>
<path d="M2.57921 16.2392L2.30258 17.054C2.70423 17.1837 3.13671 17.1926 3.54275 17.0806L3.4387 16.2331C3.16159 16.3317 2.85757 16.3337 2.57921 16.2392ZM1.77058 14.5533L0.887315 14.4189C0.771371 14.8361 0.783106 15.2817 0.92252 15.6931L1.78169 15.4779C1.66606 15.1817 1.66199 14.8517 1.77058 14.5533ZM5.00057 14.2734L4.2237 14.5355C4.34857 14.865 4.33574 15.2346 4.18506 15.556L5.02232 15.6612C5.16706 15.21 5.1597 14.7209 5.00057 14.2734ZM2.28286 12.9511L2.44215 13.8161C2.75931 13.6668 3.12373 13.6518 3.45012 13.7711L3.69781 12.9672C3.24186 12.8036 2.74194 12.7982 2.28286 12.9511Z" fill="white"/>
<path d="M3.00009 15.9573C3.52869 15.9573 3.95721 15.5288 3.95721 15.0001C3.95721 14.4715 3.52869 14.043 3.00009 14.043C2.47149 14.043 2.04297 14.4715 2.04297 15.0001C2.04297 15.5288 2.47149 15.9573 3.00009 15.9573Z" fill="white"/>
<path d="M4.76371 20.2285C3.78515 19.2542 2.20231 19.2581 1.22845 20.2364C0.254115 21.2151 0.257714 22.798 1.23611 23.7719C2.21498 24.7461 3.79814 24.7425 4.77185 23.7639C5.74571 22.7853 5.74242 21.2022 4.76371 20.2285Z" fill="white"/>
<path d="M2.57921 23.2392L2.30258 24.054C2.70423 24.1837 3.13671 24.1926 3.54275 24.0806L3.4387 23.2331C3.16159 23.3317 2.85757 23.3337 2.57921 23.2392ZM1.77058 21.5533L0.887315 21.4189C0.771371 21.8361 0.783106 22.2817 0.92252 22.6931L1.78169 22.4779C1.66606 22.1817 1.66199 21.8517 1.77058 21.5533ZM5.00057 21.2734L4.2237 21.5355C4.34857 21.865 4.33574 22.2346 4.18506 22.556L5.02232 22.6612C5.16706 22.21 5.1597 21.7209 5.00057 21.2734ZM2.28286 19.9511L2.44215 20.8161C2.75931 20.6668 3.12373 20.6518 3.45012 20.7711L3.69781 19.9672C3.24186 19.8036 2.74194 19.7982 2.28286 19.9511Z" fill="white"/>
<path d="M3.00009 22.9573C3.52869 22.9573 3.95721 22.5288 3.95721 22.0001C3.95721 21.4715 3.52869 21.043 3.00009 21.043C2.47149 21.043 2.04297 21.4715 2.04297 22.0001C2.04297 22.5288 2.47149 22.9573 3.00009 22.9573Z" fill="white"/>
<path d="M4.76371 27.2285C3.78515 26.2542 2.20231 26.2581 1.22845 27.2364C0.254115 28.2151 0.257714 29.798 1.23611 30.7719C2.21498 31.7461 3.79814 31.7425 4.77185 30.7639C5.74571 29.7853 5.74242 28.2022 4.76371 27.2285Z" fill="white"/>
<path d="M2.57921 30.2392L2.30258 31.054C2.70423 31.1837 3.13671 31.1926 3.54275 31.0806L3.4387 30.2331C3.16159 30.3317 2.85757 30.3337 2.57921 30.2392ZM1.77058 28.5533L0.887315 28.4189C0.771371 28.8361 0.783106 29.2817 0.92252 29.6931L1.78169 29.4779C1.66606 29.1817 1.66199 28.8517 1.77058 28.5533ZM5.00057 28.2734L4.2237 28.5355C4.34857 28.865 4.33574 29.2346 4.18506 29.556L5.02232 29.6612C5.16706 29.21 5.1597 28.7209 5.00057 28.2734ZM2.28286 26.9511L2.44215 27.8161C2.75931 27.6668 3.12373 27.6518 3.45012 27.7711L3.69781 26.9672C3.24186 26.8036 2.74194 26.7982 2.28286 26.9511Z" fill="white"/>
<path d="M3.00009 29.9573C3.52869 29.9573 3.95721 29.5288 3.95721 29.0001C3.95721 28.4715 3.52869 28.043 3.00009 28.043C2.47149 28.043 2.04297 28.4715 2.04297 29.0001C2.04297 29.5288 2.47149 29.9573 3.00009 29.9573Z" fill="white"/>
</svg>
