<svg width="51" height="51" viewBox="0 0 51 51" fill="none" xmlns="http://www.w3.org/2000/svg">
<path d="M29.6437 25.6291C29.253 27.3478 30.3468 29.1447 32.1437 29.5353C33.9405 29.926 35.7374 28.8322 36.128 27.1135L40.8937 6.64473C41.2843 4.92598 40.1906 3.1291 38.3937 2.73848C36.5968 2.34785 34.7999 3.4416 34.4093 5.16035L29.6437 25.6291Z" fill="url(#paint0_linear_1401_263)" stroke="white" stroke-width="0.5"/>
<path d="M35.8162 27.6588C35.8162 27.6588 29.0193 20.94 16.9881 24.2994C16.9881 24.2994 9.87869 25.5494 10.2693 29.1431C10.2693 29.1431 10.0349 38.0494 13.0818 43.3619C16.8476 49.8084 30.4354 50.9084 37.2034 43.3619C38.7196 41.6713 38.5759 40.1521 39.3909 37.4783C39.3909 34.6747 39.3909 28.1328 35.8162 27.6588Z" fill="url(#paint1_linear_1401_263)" stroke="white" stroke-width="0.5"/>
<path d="M23.7039 26.7998C24.0164 28.5967 25.8133 29.6904 27.6102 29.3779C29.407 29.0654 30.657 27.3467 30.3445 25.5498L26.4383 4.92479C26.1258 3.12792 24.3289 2.03417 22.532 2.34667C20.7352 2.65917 19.4852 4.37792 19.8758 6.17479L23.7039 26.7998Z" fill="url(#paint2_linear_1401_263)"/>
<path d="M23.7039 26.7998C24.0164 28.5967 25.8133 29.6904 27.6102 29.3779C29.407 29.0654 30.657 27.3467 30.3445 25.5498L26.4383 4.92479C26.1258 3.12792 24.3289 2.03417 22.532 2.34667C20.7352 2.65917 19.4852 4.37792 19.8758 6.17479L23.7039 26.7998" stroke="white" stroke-width="0.5"/>
<path d="M9.88094 25.7855C9.64656 23.9886 10.9747 22.348 12.8497 22.1136H12.9278C14.7247 21.9574 16.4434 23.2074 16.5997 25.0824L17.1466 30.1605C17.3809 31.9574 16.0528 33.598 14.1778 33.8324H14.0997C12.2247 33.9886 10.5841 32.7386 10.4278 30.8636L9.88094 25.7855Z" fill="url(#paint3_linear_1401_263)"/>
<path d="M9.88094 25.7855C9.64656 23.9886 10.9747 22.348 12.8497 22.1136H12.9278C14.7247 21.9574 16.4434 23.2074 16.5997 25.0824L17.1466 30.1605C17.3809 31.9574 16.0528 33.598 14.1778 33.8324H14.0997C12.2247 33.9886 10.5841 32.7386 10.4278 30.8636L9.88094 25.7855" stroke="white" stroke-width="0.5"/>
<path d="M16.2023 22.1136C15.968 20.3167 17.2961 18.6761 19.1711 18.4417H19.2492C21.1242 18.2855 22.7648 19.5355 22.9211 21.4105L23.468 26.4886C23.7023 28.2855 22.3742 29.9261 20.4992 30.1605H20.4211C18.5461 30.3167 16.9055 29.0667 16.7492 27.1917L16.2023 22.1136Z" fill="url(#paint4_linear_1401_263)"/>
<path d="M16.2023 22.1136C15.968 20.3167 17.2961 18.6761 19.1711 18.4417H19.2492C21.1242 18.2855 22.7648 19.5355 22.9211 21.4105L23.468 26.4886C23.7023 28.2855 22.3742 29.9261 20.4992 30.1605H20.4211C18.5461 30.3167 16.9055 29.0667 16.7492 27.1917L16.2023 22.1136" stroke="white" stroke-width="0.5"/>
<path d="M13.0645 32.7399C14.9395 32.5055 16.1895 30.943 16.0332 29.068L15.4863 23.9899C15.4082 23.5211 15.1738 22.9742 14.9395 22.5055C16.1113 23.0524 16.502 23.9899 16.6582 25.0836L17.2051 30.1618C17.4395 31.9586 16.1113 33.5993 14.3145 33.7555C12.9863 33.9118 11.7363 33.2086 11.1113 32.193C11.5801 32.5836 12.2832 32.818 13.0645 32.7399Z" fill="white"/>
<path d="M19.3041 29.0676C21.1791 28.8333 22.5072 27.2708 22.2728 25.4739L21.7259 20.3958C21.6478 19.927 21.4134 19.302 21.1791 18.9114C22.2728 19.5364 22.7416 20.4739 22.8978 21.5676L23.4447 26.6458C23.6791 28.4426 22.3509 30.0051 20.4759 30.2395H20.3978C19.0697 30.3958 17.8197 29.6926 17.1947 28.677C17.8197 28.9895 18.5228 29.1458 19.3041 29.0676Z" fill="white"/>
<path d="M32.8343 32.5828C29.0843 30.7859 20.5687 33.9109 22.2875 41.7234C22.2875 33.5984 29.6312 32.1922 32.8343 32.5828Z" fill="white"/>
<path d="M31.4184 24.5359C28.6841 22.8952 28.2153 25.4734 23.6059 25.6296C21.5747 25.7077 20.7153 29.8484 23.7622 31.3327C27.9809 33.4421 28.2934 30.4734 29.3872 31.6452C30.4809 32.8952 31.4966 33.1296 32.4341 34.5359C33.1372 35.5515 38.3716 33.989 38.9184 31.8796C39.9341 27.739 35.6372 27.114 31.4184 24.5359Z" fill="white"/>
<path d="M31.7511 25.2385C28.9386 23.5979 28.3917 26.176 23.6261 26.3323C21.5167 26.4104 20.5792 30.7073 23.7824 32.2698C28.1574 34.4573 28.548 31.3323 29.5636 32.5823C30.7355 33.8323 31.7511 34.1448 32.7667 35.6291C33.4699 36.7229 31.5949 40.7854 31.5949 40.7854C31.5949 40.7854 36.9855 44.6135 38.0792 42.426C40.1105 38.3635 39.5636 35.2385 39.4855 32.8948C39.3292 27.3479 36.2042 27.8948 31.7511 25.2385Z" fill="url(#paint5_linear_1401_263)"/>
<path d="M31.7511 25.2385C28.9386 23.5979 28.3917 26.176 23.6261 26.3323C21.5167 26.4104 20.5792 30.7073 23.7824 32.2698C28.1574 34.4573 28.548 31.3323 29.5636 32.5823C30.7355 33.8323 31.7511 34.1448 32.7667 35.6291C33.4699 36.7229 31.5949 40.7854 31.5949 40.7854C31.5949 40.7854 36.9855 44.6135 38.0792 42.426C40.1105 38.3635 39.5636 35.2385 39.4855 32.8948C39.3292 27.3479 36.2042 27.8948 31.7511 25.2385" stroke="white" stroke-width="0.5"/>
<defs>
<linearGradient id="paint0_linear_1401_263" x1="30.6222" y1="0.215374" x2="46.4579" y2="2.35629" gradientUnits="userSpaceOnUse">
<stop stop-color="#C54A92"/>
<stop offset="1" stop-color="#2E62EB"/>
</linearGradient>
<linearGradient id="paint1_linear_1401_263" x1="13.0337" y1="21.0213" x2="50.2814" y2="34.8622" gradientUnits="userSpaceOnUse">
<stop stop-color="#C54A92"/>
<stop offset="1" stop-color="#2E62EB"/>
</linearGradient>
<linearGradient id="paint2_linear_1401_263" x1="20.7856" y1="-0.166869" x2="35.5234" y2="1.67005" gradientUnits="userSpaceOnUse">
<stop stop-color="#C54A92"/>
<stop offset="1" stop-color="#2E62EB"/>
</linearGradient>
<linearGradient id="paint3_linear_1401_263" x1="10.5326" y1="21.0356" x2="20.484" y2="23.0166" gradientUnits="userSpaceOnUse">
<stop stop-color="#C54A92"/>
<stop offset="1" stop-color="#2E62EB"/>
</linearGradient>
<linearGradient id="paint4_linear_1401_263" x1="16.854" y1="17.3637" x2="26.8054" y2="19.3447" gradientUnits="userSpaceOnUse">
<stop stop-color="#C54A92"/>
<stop offset="1" stop-color="#2E62EB"/>
</linearGradient>
<linearGradient id="paint5_linear_1401_263" x1="23.3615" y1="23.0256" x2="46.446" y2="30.2004" gradientUnits="userSpaceOnUse">
<stop stop-color="#C54A92"/>
<stop offset="1" stop-color="#2E62EB"/>
</linearGradient>
</defs>
</svg>
