<svg width="101" height="13" viewBox="0 0 101 13" fill="none" xmlns="http://www.w3.org/2000/svg">
<path d="M7.72855 13L0.598449 0.68904H3.67619L8.83995 9.63158L14.0037 0.68904H17.0644L9.93426 13H7.72855ZM27.6643 13L24.0907 8.74246H27.5617L30.4 12.0938V13H27.6643ZM18.1062 13V0.706139H27.8694C28.3368 0.706139 28.7586 0.820129 29.1347 1.04811C29.5223 1.27609 29.8301 1.58386 30.0581 1.97143C30.2974 2.359 30.4171 2.78076 30.4171 3.23672V6.41706C30.4171 6.87302 30.2974 7.29478 30.0581 7.68235C29.8301 8.06992 29.5223 8.37769 29.1347 8.60567C28.7586 8.83365 28.3368 8.94764 27.8694 8.94764L20.7564 8.96474V13H18.1062ZM20.7564 6.28027H27.7327V3.35642H20.7564V6.28027ZM40.2567 13C39.8007 13 39.3789 12.886 38.9914 12.658C38.6038 12.43 38.296 12.1223 38.0681 11.7347C37.8401 11.3471 37.7261 10.9254 37.7261 10.4694V3.21963C37.7261 2.75227 37.8401 2.3305 38.0681 1.95433C38.296 1.56677 38.6038 1.25899 38.9914 1.03101C39.3789 0.80303 39.8007 0.68904 40.2567 0.68904H47.4894C47.9567 0.68904 48.3785 0.80303 48.7547 1.03101C49.1422 1.25899 49.45 1.56677 49.678 1.95433C49.9174 2.3305 50.037 2.75227 50.037 3.21963V4.38233H47.3526V3.35642H40.3764V10.3326H47.3526V8.48598H44.6852V5.81861H50.037V10.4694C50.037 10.9254 49.9174 11.3471 49.678 11.7347C49.45 12.1223 49.1422 12.43 48.7547 12.658C48.3785 12.886 47.9567 13 47.4894 13H40.2567ZM54.3301 13C53.8742 13 53.4581 12.886 53.0819 12.658C52.7058 12.43 52.4037 12.128 52.1757 11.7518C51.9591 11.3756 51.8508 10.9653 51.8508 10.5207V6.72483H59.2887V5.69892H51.8508V3.08284H59.4255C59.8815 3.08284 60.2975 3.19683 60.6737 3.42481C61.0499 3.65279 61.3462 3.95486 61.5628 4.33103C61.7908 4.7072 61.9048 5.11757 61.9048 5.56213V13H54.3301ZM54.4669 10.3839H59.2887V9.01604H54.4669V10.3839ZM63.2729 13V3.08284H75.2077C75.6637 3.08284 76.0797 3.19683 76.4559 3.42481C76.8321 3.65279 77.1285 3.95486 77.345 4.33103C77.573 4.7072 77.687 5.11757 77.687 5.56213V13H75.088V5.69892H71.8051V13H69.1719V5.69892H65.889V13H63.2729ZM81.7308 13C81.2863 13 80.8759 12.886 80.4997 12.658C80.1236 12.43 79.8215 12.128 79.5935 11.7518C79.3655 11.3756 79.2515 10.9653 79.2515 10.5207V5.56213C79.2515 5.11757 79.3655 4.7072 79.5935 4.33103C79.8215 3.95486 80.1236 3.65279 80.4997 3.42481C80.8759 3.19683 81.2863 3.08284 81.7308 3.08284H86.8262C87.2822 3.08284 87.6982 3.19683 88.0744 3.42481C88.4506 3.65279 88.7469 3.95486 88.9635 4.33103C89.1915 4.7072 89.3055 5.11757 89.3055 5.56213V9.35801H81.8676V10.3839H89.3055V13H81.7308ZM81.8676 7.0668H86.6894V5.69892H81.8676V7.0668ZM93.3513 13C92.9067 13 92.4964 12.886 92.1202 12.658C91.744 12.43 91.442 12.128 91.214 11.7518C90.986 11.3756 90.872 10.9653 90.872 10.5207V10.0249H93.4881V10.3839H98.3099V9.35801H93.3513C92.9067 9.35801 92.4964 9.24402 92.1202 9.01604C91.744 8.78806 91.442 8.48598 91.214 8.10981C90.986 7.73365 90.872 7.32328 90.872 6.87872V5.56213C90.872 5.11757 90.986 4.7072 91.214 4.33103C91.442 3.95486 91.744 3.65279 92.1202 3.42481C92.4964 3.19683 92.9067 3.08284 93.3513 3.08284H98.4467C98.9026 3.08284 99.3187 3.19683 99.6949 3.42481C100.071 3.65279 100.373 3.95486 100.601 4.33103C100.829 4.7072 100.943 5.11757 100.943 5.56213V6.05799H98.3099V5.69892H93.4881V6.72483H98.4467C98.9026 6.72483 99.3187 6.83882 99.6949 7.0668C100.071 7.29478 100.373 7.59686 100.601 7.97302C100.829 8.34919 100.943 8.75956 100.943 9.20412V10.5207C100.943 10.9653 100.829 11.3756 100.601 11.7518C100.373 12.128 100.071 12.43 99.6949 12.658C99.3187 12.886 98.9026 13 98.4467 13H93.3513Z" fill="white"/>
</svg>
