<svg width="51" height="46" viewBox="0 0 51 46" fill="none" xmlns="http://www.w3.org/2000/svg">
<path fill-rule="evenodd" clip-rule="evenodd" d="M3.90645 3.30005C2.19515 3.30005 0.807861 4.68734 0.807861 6.39864V41.9344C0.807861 43.6457 2.19515 45.033 3.90645 45.033H39.4422C41.1535 45.033 42.5408 43.6457 42.5408 41.9344V6.39864C42.5408 4.68734 41.1535 3.30005 39.4422 3.30005H3.90645ZM25.1854 36.0695C27.1477 36.0638 29.0122 35.2029 30.3007 33.7073L42.5402 19.6452V10.6032C42.5402 5.03879 37.9621 3.71935 37.9621 3.71935C34.458 6.98834 31.8741 9.86293 29.3456 12.676C27.7411 14.4609 26.1589 16.2211 24.378 18.0415L21.071 14.1055C18.5861 11.254 14.2842 10.9781 11.4625 13.4892C8.64075 16.0002 8.3677 20.3474 10.8526 23.1989L20.0569 33.7366C21.3538 35.2248 23.2231 36.0751 25.1854 36.0695Z" fill="url(#paint0_linear_1401_280)"/>
<path d="M30.3007 33.7073L30.1121 33.5432L30.1113 33.5441L30.3007 33.7073ZM25.1854 36.0695L25.1861 36.3195L25.1854 36.0695ZM42.5402 19.6452L42.7287 19.8093L42.7902 19.7388V19.6452H42.5402ZM37.9621 3.71935L38.0313 3.47913L37.8952 3.43989L37.7916 3.53655L37.9621 3.71935ZM29.3456 12.676L29.1596 12.5088L29.3456 12.676ZM24.378 18.0415L24.1866 18.2024L24.364 18.4134L24.5567 18.2164L24.378 18.0415ZM21.071 14.1055L21.2624 13.9446L21.2595 13.9412L21.071 14.1055ZM11.4625 13.4892L11.2963 13.3024L11.4625 13.4892ZM10.8526 23.1989L10.6641 23.3631L10.6643 23.3633L10.8526 23.1989ZM20.0569 33.7366L20.2454 33.5723L20.2452 33.5721L20.0569 33.7366ZM1.05786 6.39864C1.05786 4.82541 2.33322 3.55005 3.90645 3.55005V3.05005C2.05708 3.05005 0.557861 4.54927 0.557861 6.39864H1.05786ZM1.05786 41.9344V6.39864H0.557861V41.9344H1.05786ZM3.90645 44.783C2.33322 44.783 1.05786 43.5076 1.05786 41.9344H0.557861C0.557861 43.7838 2.05708 45.283 3.90645 45.283V44.783ZM39.4422 44.783H3.90645V45.283H39.4422V44.783ZM42.2908 41.9344C42.2908 43.5076 41.0154 44.783 39.4422 44.783V45.283C41.2916 45.283 42.7908 43.7838 42.7908 41.9344H42.2908ZM42.2908 6.39864V41.9344H42.7908V6.39864H42.2908ZM39.4422 3.55005C41.0155 3.55005 42.2908 4.82541 42.2908 6.39864H42.7908C42.7908 4.54926 41.2916 3.05005 39.4422 3.05005V3.55005ZM3.90645 3.55005H39.4422V3.05005H3.90645V3.55005ZM30.1113 33.5441C28.8698 34.9851 27.074 35.814 25.1847 35.8195L25.1861 36.3195C27.2214 36.3136 29.1546 35.4206 30.4901 33.8705L30.1113 33.5441ZM42.3516 19.4811L30.1121 33.5432L30.4893 33.8714L42.7287 19.8093L42.3516 19.4811ZM42.2902 10.6032V19.6452H42.7902V10.6032H42.2902ZM37.9621 3.71935C37.8929 3.95957 37.8928 3.95954 37.8927 3.95951C37.8927 3.95951 37.8926 3.95949 37.8926 3.95948C37.8925 3.95947 37.8926 3.95948 37.8927 3.95951C37.8929 3.95957 37.8933 3.9597 37.8941 3.95993C37.8955 3.96037 37.8981 3.96114 37.9017 3.96224C37.9089 3.96446 37.9202 3.96802 37.9355 3.97302C37.9659 3.98303 38.0118 3.99879 38.071 4.02099C38.1895 4.06542 38.3608 4.13553 38.5673 4.23688C38.9807 4.43979 39.5327 4.76658 40.0843 5.26082C41.1821 6.24435 42.2902 7.89996 42.2902 10.6032H42.7902C42.7902 7.74201 41.6092 5.95571 40.418 4.88842C39.8251 4.35724 39.2325 4.00641 38.7876 3.78803C38.5649 3.67874 38.3785 3.6023 38.2466 3.55283C38.1806 3.52809 38.1282 3.51006 38.0916 3.49803C38.0733 3.49201 38.0589 3.48749 38.0488 3.48437C38.0437 3.48281 38.0397 3.4816 38.0368 3.48073C38.0353 3.4803 38.0341 3.47995 38.0332 3.47968C38.0328 3.47955 38.0324 3.47943 38.0321 3.47934C38.0319 3.4793 38.0317 3.47924 38.0317 3.47922C38.0315 3.47917 38.0313 3.47913 37.9621 3.71935ZM29.5315 12.8431C32.06 10.0301 34.6374 7.16287 38.1327 3.90215L37.7916 3.53655C34.2786 6.81381 31.6882 9.69578 29.1596 12.5088L29.5315 12.8431ZM24.5567 18.2164C26.3419 16.3916 27.9274 14.6276 29.5315 12.8431L29.1596 12.5088C27.5548 14.2943 25.976 16.0506 24.1993 17.8667L24.5567 18.2164ZM20.8796 14.2663L24.1866 18.2024L24.5694 17.8807L21.2624 13.9447L20.8796 14.2663ZM11.6287 13.6759C14.3463 11.2575 18.4888 11.5229 20.8825 14.2697L21.2595 13.9412C18.6834 10.9852 14.2222 10.6987 11.2963 13.3024L11.6287 13.6759ZM11.0411 23.0346C8.64602 20.2863 8.90956 16.0957 11.6287 13.6759L11.2963 13.3024C8.37193 15.9048 8.08938 20.4086 10.6641 23.3631L11.0411 23.0346ZM20.2452 33.5721L11.0409 23.0344L10.6643 23.3633L19.8686 33.901L20.2452 33.5721ZM25.1847 35.8195C23.2954 35.8249 21.495 35.0062 20.2454 33.5723L19.8685 33.9008C21.2127 35.4433 23.1508 36.3253 25.1861 36.3195L25.1847 35.8195Z" fill="white"/>
<path fill-rule="evenodd" clip-rule="evenodd" d="M48.7271 2.22954C50.5042 3.7388 50.6906 6.36759 49.1434 8.1011L27.5118 31.2037C26.7043 32.1085 25.5359 32.6293 24.3061 32.6327C23.0764 32.6361 21.905 32.1217 21.0922 31.2215L12.7722 21.6711C11.215 19.9461 11.3861 17.3163 13.1544 15.7973C14.9227 14.2782 17.6186 14.4451 19.1759 16.1701L24.2757 22.1536L42.708 2.63558C44.2552 0.90207 46.9501 0.720277 48.7271 2.22954Z" fill="url(#paint1_linear_1401_280)" stroke="white" stroke-width="0.5"/>
<defs>
<linearGradient id="paint0_linear_1401_280" x1="4.67627" y1="-0.483719" x2="58.2038" y2="16.6154" gradientUnits="userSpaceOnUse">
<stop stop-color="#C54A92"/>
<stop offset="1" stop-color="#2E62EB"/>
</linearGradient>
<linearGradient id="paint1_linear_1401_280" x1="15.111" y1="3.25522" x2="55.6726" y2="19.1947" gradientUnits="userSpaceOnUse">
<stop stop-color="#C54A92"/>
<stop offset="1" stop-color="#2E62EB"/>
</linearGradient>
</defs>
</svg>
