<svg width="51" height="33" viewBox="0 0 51 33" fill="none" xmlns="http://www.w3.org/2000/svg">
<path d="M34.4609 0.706543H27.75C27.125 0.706543 26.5234 0.956452 26.0625 1.40629L18.3828 8.90357C18.375 8.9119 18.3672 8.92856 18.3594 8.93689C17.0625 10.2364 17.0859 12.3107 18.1953 13.6019C19.1875 14.7598 21.2734 15.068 22.5781 13.8268C22.5859 13.8185 22.6016 13.8185 22.6094 13.8101L28.8516 7.71234C29.3594 7.22085 30.1562 7.25417 30.6172 7.79564C31.0859 8.33711 31.0469 9.17847 30.5391 9.67829L28.5 11.6692L39.875 21.5157C40.1016 21.7156 40.3047 21.9322 40.4922 22.1571V6.03794L36.2266 1.48959C35.7656 0.989774 35.125 0.706543 34.4609 0.706543ZM43 6.0546V24.7062C43 26.1806 44.1172 27.3719 45.5 27.3719H50.5V6.0546H43ZM46.75 24.7062C46.0625 24.7062 45.5 24.1064 45.5 23.3733C45.5 22.6403 46.0625 22.0405 46.75 22.0405C47.4375 22.0405 48 22.6403 48 23.3733C48 24.1064 47.4375 24.7062 46.75 24.7062ZM0.5 27.3635H5.5C6.88281 27.3635 8 26.1723 8 24.6978V6.0546H0.5V27.3635ZM4.25 22.0405C4.9375 22.0405 5.5 22.6403 5.5 23.3733C5.5 24.1064 4.9375 24.7062 4.25 24.7062C3.5625 24.7062 3 24.1064 3 23.3733C3 22.6319 3.5625 22.0405 4.25 22.0405ZM38.3047 23.5899L26.6406 13.4936L24.2969 15.7844C21.9766 18.0419 18.4219 17.8253 16.3516 15.4179C14.25 12.9688 14.4141 9.17847 16.6953 6.94595L23.0859 0.706543H16.5391C15.875 0.706543 15.2422 0.989774 14.7734 1.48959L10.5 6.03794V24.6895H11.9297L19 31.512C21.1406 33.3697 24.2891 33.0198 26.0312 30.7373L26.0469 30.7207L27.4453 32.0119C28.6875 33.0948 30.5234 32.8865 31.5312 31.562L33.9844 28.3465L34.4062 28.7131C35.4766 29.6377 37.0547 29.4711 37.9219 28.3215L38.6641 27.3469C39.5391 26.1973 39.375 24.5229 38.3047 23.5899Z" fill="url(#paint0_linear_1401_278)" stroke="white" stroke-width="0.5"/>
<defs>
<linearGradient id="paint0_linear_1401_278" x1="5.13472" y1="-2.19478" x2="61.7142" y2="26.0458" gradientUnits="userSpaceOnUse">
<stop stop-color="#C54A92"/>
<stop offset="1" stop-color="#2E62EB"/>
</linearGradient>
</defs>
</svg>
