<svg width="14" height="4" viewBox="0 0 14 4" fill="none" xmlns="http://www.w3.org/2000/svg">
<path d="M2.13281 3.1709C2.87109 3.1709 3.34277 2.67871 3.34277 2.00879C3.34277 1.33887 2.87109 0.853516 2.13281 0.853516C1.40137 0.853516 0.922852 1.33887 0.922852 2.00879C0.922852 2.67871 1.40137 3.1709 2.13281 3.1709ZM7 3.1709C7.73828 3.1709 8.20996 2.67871 8.20996 2.00879C8.20996 1.33887 7.73828 0.853516 7 0.853516C6.26855 0.853516 5.79004 1.33887 5.79004 2.00879C5.79004 2.67871 6.26855 3.1709 7 3.1709ZM11.8672 3.1709C12.6055 3.1709 13.0771 2.67871 13.0771 2.00879C13.0771 1.33887 12.6055 0.853516 11.8672 0.853516C11.1357 0.853516 10.6572 1.33887 10.6572 2.00879C10.6572 2.67871 11.1357 3.1709 11.8672 3.1709Z" fill="#212B36"/>
</svg>
